<?xml version="1.0" standalone="no"?>
<!DOCTYPE svg PUBLIC "-//W3C//DTD SVG 20010904//EN"
 "http://www.w3.org/TR/2001/REC-SVG-20010904/DTD/svg10.dtd">
<svg version="1.0" xmlns="http://www.w3.org/2000/svg"
 width="900.000000pt" height="900.000000pt" viewBox="0 0 900.000000 900.000000"
 preserveAspectRatio="xMidYMid meet">

<g transform="translate(0.000000,900.000000) scale(0.100000,-0.100000)"
fill="#000000" stroke="none">
<path d="M1488 8152 l-68 -3 0 -3220 0 -3219 1038 2 1037 3 0 821 0 820 -87
130 c-108 161 -259 383 -363 534 -92 134 -95 139 -167 250 -30 47 -99 153
-152 235 -54 83 -135 208 -182 280 -46 71 -84 138 -84 147 0 9 31 63 68 120
71 106 126 190 253 388 73 114 263 398 387 580 36 52 125 183 197 290 l132
196 1 817 c0 612 -3 819 -11 824 -11 8 -1858 12 -1999 5z"/>
<path d="M5502 8151 c-8 -4 -19 -18 -25 -29 -11 -18 -159 -238 -285 -422 -25
-36 -92 -135 -150 -220 -58 -85 -133 -195 -167 -245 -135 -196 -423 -619 -657
-965 -58 -85 -139 -204 -180 -265 -145 -213 -244 -362 -328 -493 -47 -72 -149
-230 -227 -349 -79 -119 -143 -224 -143 -233 0 -8 28 -58 62 -110 89 -136 243
-374 292 -449 59 -92 263 -397 397 -594 63 -92 173 -254 244 -360 72 -106 175
-257 230 -337 54 -80 132 -194 173 -255 41 -60 89 -130 106 -155 17 -25 36
-52 41 -61 12 -19 104 -154 200 -294 80 -117 244 -358 339 -500 37 -55 73
-103 79 -107 17 -11 2075 -10 2081 1 3 5 -3 19 -13 32 -10 13 -50 69 -88 124
-38 55 -153 216 -254 357 -101 142 -268 376 -371 520 -103 145 -248 349 -323
453 -136 191 -362 509 -422 594 -18 25 -51 71 -73 101 -21 30 -61 87 -88 125
-63 91 -159 225 -177 247 -7 9 -22 29 -32 45 -24 37 -170 243 -353 498 -44 61
-80 115 -80 122 0 13 62 103 268 393 155 217 169 237 342 480 72 102 142 201
156 220 90 126 245 342 341 477 341 481 610 858 665 935 35 47 79 109 98 138
19 28 62 88 96 133 33 45 81 111 105 147 67 96 109 155 162 227 26 35 45 69
42 74 -8 12 -2065 12 -2083 0z"/>
<path d="M3626 1365 c-44 -9 -67 -22 -94 -48 l-35 -36 -7 -132 c-10 -200 6
-253 86 -294 32 -16 60 -19 154 -20 216 0 250 37 250 267 -1 192 -22 232 -142
264 -64 17 -132 16 -212 -1z m174 -130 l30 -16 0 -114 c0 -136 -6 -145 -103
-145 -85 0 -96 17 -97 138 0 100 9 128 43 142 35 14 95 11 127 -5z"/>
<path d="M5951 1369 c-24 -5 -55 -16 -68 -24 -47 -32 -66 -122 -43 -207 16
-56 49 -73 166 -86 122 -14 134 -18 134 -46 0 -35 -15 -48 -63 -53 -62 -7 -91
2 -105 32 -11 24 -16 26 -75 23 l-62 -3 3 -49 c6 -94 44 -118 192 -124 122 -5
177 7 222 47 29 26 31 33 35 107 4 66 1 84 -16 111 -24 38 -95 63 -180 63 -92
0 -135 37 -95 81 34 38 144 15 144 -31 0 -12 110 -13 129 -1 21 13 -4 106 -35
130 -47 37 -178 51 -283 30z"/>
<path d="M1735 1362 c-21 -14 -175 -238 -175 -253 0 -17 171 -259 191 -270 19
-10 240 -12 276 -3 12 3 24 17 28 32 12 47 22 52 115 52 83 0 87 -1 98 -25 7
-14 12 -32 12 -39 0 -16 31 -26 83 -26 47 0 82 17 69 33 -5 7 -19 46 -31 87
-12 41 -28 93 -35 115 -8 22 -25 78 -39 125 -14 47 -31 105 -39 130 l-13 45
-110 0 -110 0 -28 -90 c-54 -172 -75 -240 -97 -312 -11 -40 -26 -73 -33 -73
-16 1 -167 200 -167 220 0 7 16 33 35 58 94 123 135 184 130 193 -7 11 -145
12 -160 1z m465 -219 c31 -113 32 -108 -25 -111 -57 -3 -85 9 -68 30 6 7 16
38 23 68 14 62 27 90 39 90 5 0 19 -35 31 -77z"/>
<path d="M2471 1356 c-16 -19 -12 -506 4 -518 13 -10 107 -10 122 0 6 4 13 34
15 67 l3 60 64 3 c82 4 101 -11 101 -78 0 -34 4 -50 16 -54 28 -11 111 -6 121
7 6 7 7 42 4 81 -6 62 -10 71 -40 97 l-34 28 26 12 c39 18 56 63 53 144 -3 79
-15 111 -54 140 -24 18 -46 20 -208 23 -153 3 -182 2 -193 -12z m293 -132 c19
-19 21 -74 3 -98 -15 -20 -90 -33 -131 -22 -24 6 -26 10 -26 65 0 32 3 61 7
64 14 15 131 7 147 -9z"/>
<path d="M3007 1363 c-4 -3 -7 -122 -7 -264 0 -225 2 -258 16 -263 23 -9 69
-7 98 4 23 8 25 14 22 57 -1 26 2 54 7 61 6 7 35 12 78 12 93 0 162 16 189 45
16 17 25 45 33 97 18 131 -19 226 -96 250 -29 8 -332 10 -340 1z m274 -133
c15 -8 19 -21 19 -60 0 -39 -4 -52 -19 -60 -28 -14 -127 -13 -137 3 -11 15
-11 97 -1 115 10 15 110 16 138 2z"/>
<path d="M4006 1361 c-3 -4 6 -59 19 -122 14 -63 34 -157 45 -209 11 -52 26
-117 33 -145 l13 -50 87 -3 c96 -3 127 7 127 41 0 18 41 199 56 246 3 10 8 11
15 4 10 -10 26 -71 53 -211 7 -34 16 -66 20 -70 12 -12 172 -15 193 -4 13 8
23 31 32 79 8 37 21 102 31 143 10 41 25 111 34 155 10 44 21 92 25 107 12 37
-3 48 -71 48 -71 0 -67 8 -103 -191 -26 -142 -37 -180 -50 -167 -3 3 -19 61
-36 129 -16 68 -34 142 -40 164 -6 22 -13 46 -15 53 -4 14 -120 17 -141 4 -7
-5 -22 -46 -33 -93 -11 -46 -24 -97 -29 -114 -5 -16 -14 -54 -21 -83 -11 -47
-25 -71 -35 -60 -2 2 -11 39 -19 83 -9 44 -20 100 -25 125 -5 25 -13 63 -16
85 -4 22 -11 46 -17 53 -12 14 -124 17 -132 3z"/>
<path d="M4836 1354 c-3 -8 -6 -127 -6 -264 0 -217 2 -249 16 -254 20 -8 348
-8 368 0 12 5 16 20 16 60 l0 53 -122 3 -123 3 -3 44 c-2 28 1 47 10 52 7 5
59 9 116 9 l103 0 -3 48 -3 47 -113 3 -113 3 3 42 3 42 115 5 115 5 0 55 0 55
-186 3 c-164 2 -187 0 -193 -14z"/>
<path d="M5324 1358 c-6 -8 -10 -109 -9 -261 1 -206 3 -250 15 -257 18 -12
100 -13 117 -2 6 4 13 34 15 67 l3 60 65 3 c57 3 67 0 82 -19 11 -13 18 -38
18 -64 0 -47 9 -55 63 -55 72 0 77 5 77 82 0 64 -2 72 -30 100 -16 16 -30 32
-30 34 0 2 14 17 31 32 28 25 32 35 34 90 3 92 -13 149 -49 175 -29 20 -45 22
-212 25 -142 3 -182 1 -190 -10z m281 -132 c22 -16 27 -88 8 -107 -14 -14 -93
-24 -127 -15 -24 6 -26 10 -26 65 0 32 3 61 7 64 12 13 119 7 138 -7z"/>
<path d="M6366 1361 c-3 -5 -6 -123 -6 -262 -1 -194 2 -254 12 -261 17 -11 99
-10 117 1 11 7 15 34 15 103 l1 93 90 0 90 0 5 -100 5 -100 49 -3 c99 -6 91
-28 91 262 0 173 -4 259 -11 266 -6 6 -36 10 -70 8 l-59 -3 -5 -95 -5 -95 -81
-3 c-58 -2 -84 1 -92 11 -6 7 -12 51 -14 97 l-3 85 -62 3 c-34 2 -64 -1 -67
-7z"/>
<path d="M6927 1363 c-4 -3 -7 -122 -7 -264 0 -286 -5 -269 71 -269 79 0 75
-12 72 270 -2 139 -6 256 -9 261 -6 10 -117 12 -127 2z"/>
<path d="M7154 1358 c-6 -8 -9 -111 -8 -262 1 -235 2 -250 20 -257 25 -10 96
-11 111 -1 6 4 13 34 15 67 l3 60 107 6 c115 7 143 17 175 66 25 38 26 214 1
259 -34 62 -55 68 -243 72 -135 3 -173 1 -181 -10z m284 -130 c9 -12 16 -54
13 -85 -2 -26 -33 -43 -81 -43 -75 0 -80 4 -80 69 0 32 3 61 7 64 12 12 130 8
141 -5z"/>
<path d="M1420 1100 l0 -260 64 0 64 0 1 80 c1 76 -1 83 -33 131 -38 55 -38
59 7 125 25 37 28 49 25 110 l-3 69 -62 3 -63 3 0 -261z"/>
</g>
</svg>
